<svg xmlns="http://www.w3.org/2000/svg" width="1600" height="900" viewBox="0 0 1600 900" fill="none">
  <defs>
    <linearGradient id="bg" x1="0" y1="0" x2="1600" y2="900" gradientUnits="userSpaceOnUse">
      <stop offset="0" stop-color="#0B1020"/>
      <stop offset="0.55" stop-color="#121A33"/>
      <stop offset="1" stop-color="#211632"/>
    </linearGradient>
    <radialGradient id="glowA" cx="0" cy="0" r="1" gradientUnits="userSpaceOnUse" gradientTransform="translate(340 220) rotate(18) scale(580 410)">
      <stop stop-color="#3F8CFF" stop-opacity="0.55"/>
      <stop offset="1" stop-color="#3F8CFF" stop-opacity="0"/>
    </radialGradient>
    <radialGradient id="glowB" cx="0" cy="0" r="1" gradientUnits="userSpaceOnUse" gradientTransform="translate(1270 670) rotate(-21) scale(620 410)">
      <stop stop-color="#B86BFF" stop-opacity="0.48"/>
      <stop offset="1" stop-color="#B86BFF" stop-opacity="0"/>
    </radialGradient>
    <linearGradient id="wave" x1="20" y1="240" x2="1560" y2="860" gradientUnits="userSpaceOnUse">
      <stop stop-color="#3E6EF0" stop-opacity="0.48"/>
      <stop offset="1" stop-color="#4FE0B6" stop-opacity="0.24"/>
    </linearGradient>
  </defs>
  <rect width="1600" height="900" fill="url(#bg)"/>
  <ellipse cx="340" cy="230" rx="560" ry="390" fill="url(#glowA)"/>
  <ellipse cx="1270" cy="670" rx="620" ry="410" fill="url(#glowB)"/>
  <path d="M-100 640C130 528 320 522 530 586C740 650 930 780 1150 754C1330 734 1506 624 1700 548V980H-100V640Z" fill="url(#wave)"/>
  <path d="M-40 742C160 654 370 674 550 742C760 820 954 910 1194 874C1388 844 1514 790 1650 742" stroke="#8AAEFF" stroke-opacity="0.45" stroke-width="5"/>
  <g opacity="0.22">
    <circle cx="236" cy="694" r="10" fill="#5EA7FF"/>
    <circle cx="294" cy="736" r="6" fill="#5EA7FF"/>
    <circle cx="1372" cy="250" r="8" fill="#CF8CFF"/>
    <circle cx="1430" cy="202" r="5" fill="#CF8CFF"/>
  </g>
</svg>
